<svg width="300" height="300" viewBox="0 0 300 300" fill="none" xmlns="http://www.w3.org/2000/svg">
<path d="M241.349 71.3786C241.349 54.0827 227.328 40.0615 210.032 40.0615H187.274C149.396 40.0615 118.691 70.7673 118.691 108.645V108.645H241.349V71.3786Z" fill="url(#paint0_linear_141_4290)"/>
<path fill-rule="evenodd" clip-rule="evenodd" d="M90.6574 40.0615C73.3615 40.0615 59.3403 54.0827 59.3403 71.3786V108.645H114.734V191.735C114.734 228.884 144.849 258.999 181.998 258.999V258.998H181.999C202.394 258.998 218.928 242.465 218.928 222.069C218.928 218.403 218.394 214.861 217.399 211.518H209.695C194.841 211.518 182.717 199.824 182.029 185.14L181.999 185.14H181.998V108.645H181.999C181.999 70.7673 151.293 40.0615 113.416 40.0615H90.6574Z" fill="url(#paint1_linear_141_4290)"/>
<path fill-rule="evenodd" clip-rule="evenodd" d="M105.503 108.644H114.734H114.735C136.587 108.644 154.302 126.359 154.302 148.211L154.302 167.993C154.302 186.922 165.695 203.19 181.999 210.313V210.314C187.653 212.785 193.898 214.155 200.463 214.155C206.383 214.155 212.043 213.041 217.244 211.01C218.338 214.502 218.928 218.217 218.928 222.07C218.928 242.465 202.394 258.999 181.999 258.999C181.886 258.999 181.774 258.998 181.661 258.997H181.609C144.698 258.788 114.829 228.848 114.735 191.909V190.416H114.734V117.754C114.669 112.711 110.561 108.644 105.503 108.644Z" fill="url(#paint2_linear_141_4290)"/>
<defs>
<linearGradient id="paint0_linear_141_4290" x1="241.349" y1="40.0615" x2="180.679" y2="108.645" gradientUnits="userSpaceOnUse">
<stop stop-color="#6ED9EB"/>
<stop offset="1" stop-color="#41A0F8"/>
</linearGradient>
<linearGradient id="paint1_linear_141_4290" x1="75.8267" y1="40.0615" x2="207.057" y2="230.643" gradientUnits="userSpaceOnUse">
<stop stop-color="#7D27E2"/>
<stop offset="1" stop-color="#660370"/>
</linearGradient>
<linearGradient id="paint2_linear_141_4290" x1="116.054" y1="108.644" x2="199.805" y2="258.999" gradientUnits="userSpaceOnUse">
<stop stop-color="#FE0AB9"/>
<stop offset="1" stop-color="#FE6A2C"/>
</linearGradient>
</defs>
</svg>
